<?xml version="1.0" encoding="UTF-8"?>
<svg width="30px" height="30px" viewBox="0 0 30 30" version="1.1" xmlns="http://www.w3.org/2000/svg" xmlns:xlink="http://www.w3.org/1999/xlink">
    <title>ecash</title>
    <defs>
        <linearGradient x1="17.9918624%" y1="-16.7181669%" x2="72.2538822%" y2="96.7524113%" id="linearGradient-1">
            <stop stop-color="#273498" offset="0%"></stop>
            <stop stop-color="#0074C2" offset="53%"></stop>
            <stop stop-color="#00ABE7" offset="100%"></stop>
        </linearGradient>
        <circle id="path-2" cx="15" cy="15" r="15"></circle>
    </defs>
    <g id="ecash" stroke="none" stroke-width="1" fill="none" fill-rule="evenodd">
        <rect id="Rectangle-Copy" x="0" y="0" width="30" height="30"></rect>
        <mask id="mask-3" fill="white">
            <use xlink:href="#path-2"></use>
        </mask>
        <use id="Oval-Copy-2" fill="url(#linearGradient-1)" xlink:href="#path-2"></use>
        <g id="Logo-final-01" mask="url(#mask-3)" fill="#FFFFFF">
            <g transform="translate(7.000000, 6.000000)" id="Path">
                <path d="M4.11271279,6.13757184 C5.22092311,5.49847878 6.33973492,4.85015438 7.44794524,4.20467039 C7.78016633,4.00656893 8.19354349,4.00656893 8.52576458,4.20467039 L10.1725312,5.15194833 C10.2178853,5.17685256 10.2460948,5.22464184 10.2460948,5.27657147 C10.2460948,5.3285011 10.2178853,5.37629038 10.1725312,5.40119462 L6.14396053,7.73317418 C6.04020411,7.79283887 5.97666964,7.90420954 5.97787033,8.02431657 L5.97787033,9.98065144 C5.97584753,10.0991313 6.03996941,10.2087902 6.14396053,10.2646928 L7.83242637,11.2432153 C7.93032329,11.3057694 8.05540156,11.3057694 8.15329849,11.2432153 L15.1142445,7.2155088 C16.2952518,6.52812871 16.2952518,4.55120085 15.1142445,3.86382076 L8.85794497,0.242293424 C8.32604035,-0.0807644747 7.6596845,-0.0807644747 7.12777989,0.242293424 L0.87077356,3.86382076 C0.330033859,4.17028935 -0.00316301202,4.74689786 0,5.37066017 C0,7.79566328 0.0106383858,10.2100148 0,12.6243664 C-0.00403277847,13.2489137 0.32893146,13.8266747 0.870066793,14.1340462 L7.12707312,17.7662251 C7.66207369,18.077925 8.32223763,18.077925 8.8572382,17.7662251 L15.1135378,14.1340462 C15.6544255,13.8277007 15.9846461,13.2481087 15.9736729,12.6243664 L15.9736729,9.4707972 L8.52576458,13.8024279 C8.19329267,13.9996089 7.78041715,13.9996089 7.44794524,13.8024279 L4.12614136,11.865976 C3.78907044,11.6767121 3.5821273,11.3172801 3.58687831,10.9293496 L3.58687831,7.06709719 C3.58634363,6.68660274 3.78786183,6.33471714 4.11553986,6.14396277 L4.11271279,6.13757184 Z"></path>
            </g>
        </g>
    </g>
</svg>