<svg id="Layer_1" data-name="Layer 1" xmlns="http://www.w3.org/2000/svg" viewBox="0 0 30.62 30.62"><defs><style>.cls-1{fill:#fff;}.cls-2{fill:#404040;}.cls-3{fill:#fcbedc;}.cls-4{fill:#838383;}.cls-5{fill:#7f7f7f;}.cls-6{fill:#fa007b;}</style></defs><circle cx="15.31" cy="15.31" r="15.31"/><g id="IG7oaM.tif"><path class="cls-1" d="M22.6865,13.567a1.675,1.675,0,0,0-.0749.4667,7.0627,7.0627,0,0,1-3.8754,5.3937,6.8322,6.8322,0,0,1-2.7991.75,5.6052,5.6052,0,0,0-1.29.1523,2.4862,2.4862,0,0,0-1.8074,1.9915c-.1017.4689-.1992.9388-.3041,1.407a.9871.9871,0,0,1-1.9309-.41q.58-2.7356,1.1676-5.4695c.355-1.6607.7135-3.3207,1.0642-4.9824a.9959.9959,0,0,1,1.48-.7189A.9839.9839,0,0,1,14.7877,13.2q-.4666,2.1722-.9379,4.3434c-.0507.2347-.0987.47-.1461.7052-.0273.1355-.0008.171.1287.1448.7451-.1507,1.5054-.1574,2.2568-.2448a5.0124,5.0124,0,0,0,3.93-2.5811A5.1423,5.1423,0,0,0,15.194,7.9106a5.1808,5.1808,0,0,0-4.6885,4.0339,5.0983,5.0983,0,0,0,.1543,2.7441,1.0011,1.0011,0,1,1-1.903.6147,6.9946,6.9946,0,0,1,.3142-5.275,6.8848,6.8848,0,0,1,5.3444-4.032,6.8744,6.8744,0,0,1,6.1515,1.9784,6.91,6.91,0,0,1,2.043,4.0559,2.7264,2.7264,0,0,0,.0766.5371v.0555c-.029.06-.0076.1234-.0144.1849q0,.2325,0,.4647a.6505.6505,0,0,0,.0143.2109Z"/><path class="cls-2" d="M22.6617,13.2919l0-.5043c.0093-.0107.0176-.0094.0251.0022v.5C22.6793,13.3013,22.671,13.3017,22.6617,13.2919Z"/><path class="cls-3" d="M15.695,24.7261l-.0016-.0227a.16.16,0,0,1,.2249-.0007l-.0014.0234Z"/><path class="cls-4" d="M22.6617,13.2919l.0248-.0025v.1943C22.6292,13.4261,22.6713,13.3557,22.6617,13.2919Z"/><path class="cls-5" d="M22.6865,12.79a.1057.1057,0,0,1-.0251-.0022c.0061-.0551-.0284-.1165.0251-.1644Z"/><path class="cls-6" d="M15.9183,24.7027l-.2249.0007a1.2023,1.2023,0,1,1,1.2947-1.4A1.1951,1.1951,0,0,1,15.9183,24.7027Z"/></g></svg>