<svg id="Layer_1" data-name="Layer 1" xmlns="http://www.w3.org/2000/svg" viewBox="0 0 30.64 30.64"><defs><style>.cls-1{fill:#1058e1;}.cls-2{fill:#fff;}.cls-3{fill:#2e5ba4;}</style></defs><title>lnk</title><circle class="cls-1" cx="15.32" cy="15.32" r="15.32"/><g id="Oqi3on.tif"><path class="cls-2" d="M8,11,10.49,9.5l4.7-2.72a.24.24,0,0,1,.27,0q3,1.76,6,3.48l1.17.68a.2.2,0,0,1,.13.21v8.34a.19.19,0,0,1-.11.2L15.5,23.85a.2.2,0,0,1-.25,0L8,19.72l-.06,0a.2.2,0,0,1-.09-.19V11.16A.21.21,0,0,1,8,11Z"/><path class="cls-3" d="M8,11a.37.37,0,0,0-.07.23v8.26a.32.32,0,0,0,.07.22c-.08,0-.11-.06-.11-.14V11.18C7.86,11.09,7.83,11,8,11Z"/><path class="cls-1" d="M19.63,15.32v2.33a.22.22,0,0,1-.12.23l-4.1,2.37a.19.19,0,0,1-.19,0l-3.64-2.11-.09-.05c-.4-.13-.49-.41-.48-.81,0-1.43,0-2.86,0-4.29a.21.21,0,0,1,.12-.22l4.07-2.35a.18.18,0,0,1,.22,0l4.06,2.34a.24.24,0,0,1,.14.26Z"/></g></svg>