<svg id="Layer_1" data-name="Layer 1" xmlns="http://www.w3.org/2000/svg" viewBox="0 0 32 32"><defs><style>.cls-1{fill:#fff;}</style></defs><title>str</title><circle cx="16" cy="16" r="16"/><path class="cls-1" d="M6,20.21a.19.19,0,0,0,.09,0L9.6,18.4l6.23-3.18,10-5.13A.13.13,0,0,0,26,10V8.33L9.17,16.9a7,7,0,0,1,.34-3.24A6.91,6.91,0,0,1,15.66,9.1a6.82,6.82,0,0,1,3.62.82.17.17,0,0,0,.18,0l1.39-.72.09-.05-.05,0A8.16,8.16,0,0,0,14.48,7.7a8.23,8.23,0,0,0-6.15,4.82,7.58,7.58,0,0,0-.73,2.92c0,.41,0,.83,0,1.24a1.51,1.51,0,0,1-.87,1.46l-.62.32s-.07.06-.07.09ZM26,11.78l-.11.05-7.84,4L6.15,21.89a.14.14,0,0,0-.11.16v1.61L22.83,15.1a.08.08,0,0,1,0,0,6.87,6.87,0,0,1-.07,2.17,6.66,6.66,0,0,1-1.56,3.22,6.89,6.89,0,0,1-8.51,1.55.14.14,0,0,0-.16,0l-1.4.72-.09,0,.08.06a8.16,8.16,0,0,0,6.56,1.37,8.18,8.18,0,0,0,6-4.78,7.58,7.58,0,0,0,.73-2.92c0-.42,0-.84,0-1.26a1.5,1.5,0,0,1,.87-1.45l.6-.3a.15.15,0,0,0,.09-.16V11.78Z" transform="translate(0 0)"/><path class="cls-1" d="M6,20.21V18.55s0-.07.07-.09l.62-.32a1.51,1.51,0,0,0,.87-1.46c0-.41,0-.83,0-1.24a7.58,7.58,0,0,1,.73-2.92A8.23,8.23,0,0,1,14.48,7.7a8.16,8.16,0,0,1,6.41,1.43l.05,0-.09.05-1.39.72a.17.17,0,0,1-.18,0,6.82,6.82,0,0,0-3.62-.82,6.91,6.91,0,0,0-6.15,4.56,7,7,0,0,0-.34,3.24L26,8.33V10a.13.13,0,0,1-.08.13l-10,5.13L9.6,18.4,6.13,20.17A.19.19,0,0,1,6,20.21Z" transform="translate(0 0)"/><path class="cls-1" d="M26,11.78v1.61a.15.15,0,0,1-.09.16l-.6.3a1.5,1.5,0,0,0-.87,1.45c0,.42,0,.84,0,1.26a7.58,7.58,0,0,1-.73,2.92,8.18,8.18,0,0,1-6,4.78,8.16,8.16,0,0,1-6.56-1.37l-.08-.06.09,0,1.4-.72a.14.14,0,0,1,.16,0,6.89,6.89,0,0,0,8.51-1.55,6.66,6.66,0,0,0,1.56-3.22,6.87,6.87,0,0,0,.07-2.17.08.08,0,0,0,0,0L6,23.66V22.05a.14.14,0,0,1,.11-.16L18,15.83l7.84-4Z" transform="translate(0 0)"/></svg>