<svg id="Layer_1" data-name="Layer 1" xmlns="http://www.w3.org/2000/svg" viewBox="0 0 30.67 30.68"><defs><style>.cls-1{fill:#fed7c2;}.cls-2{fill:#fed6c0;}.cls-3{fill:#fe5800;}.cls-4{fill:#4c4c4c;}</style></defs><title>monero</title><g id="pQT92r.tif"><path class="cls-1" d="M15.14.23V.17h.61a.13.13,0,0,0,0,.06A.44.44,0,0,1,15.14.23Z" transform="translate(-0.08 -0.17)"/><path class="cls-2" d="M.08,15.23H.14a.44.44,0,0,1,0,.62H.08Z" transform="translate(-0.08 -0.17)"/><path class="cls-3" d="M.14,15.85v-.62A15.06,15.06,0,0,1,4.68,4.66,15,15,0,0,1,15.14.23h.62a15,15,0,0,1,10.61,4.6A14.94,14.94,0,0,1,30.68,17a15.3,15.3,0,0,1-.6,3.07c-.07.26-.19.33-.45.32-1.3,0-2.6,0-3.9,0-.29,0-.35-.09-.35-.37,0-4,0-8,0-12V7.6c-.18,0-.25.18-.35.28q-4.66,4.64-9.3,9.3c-.23.23-.34.25-.58,0C12.08,14.08,9,11,5.89,7.9a3.38,3.38,0,0,1-.27-.36l-.11.07V8c0,4,0,8,0,11.93,0,.38-.11.45-.47.45-1.26,0-2.52,0-3.78,0C1,20.38.88,20.28.8,20A15.92,15.92,0,0,1,.14,15.85Z" transform="translate(-0.08 -0.17)"/><path class="cls-4" d="M8.81,15.43a.78.78,0,0,1,.35.28q3,3,6,6c.22.21.32.21.53,0q3-3,6-6a.67.67,0,0,1,.35-.28v.42c0,2.41,0,4.82,0,7.22,0,.35.1.42.42.42,1.85,0,3.7,0,5.55,0h.51a15.16,15.16,0,0,1-12.1,7.32A15.08,15.08,0,0,1,2.4,23.5l.41,0c1.88,0,3.75,0,5.62,0,.3,0,.39-.06.38-.37C8.8,20.56,8.81,18,8.81,15.43Z" transform="translate(-0.08 -0.17)"/></g></svg>